<?xml version="1.0" encoding="UTF-8" standalone="no" ?>
<!DOCTYPE svg PUBLIC "-//W3C//DTD SVG 1.1//EN" "http://www.w3.org/Graphics/SVG/1.1/DTD/svg11.dtd">
<svg xmlns="http://www.w3.org/2000/svg" xmlns:xlink="http://www.w3.org/1999/xlink" version="1.1" width="1080" height="1080" viewBox="0 0 1080 1080" xml:space="preserve">
<desc>Created with Fabric.js 5.2.4</desc>
<defs>
</defs>
<g transform="matrix(1 0 0 1 540 540)" id="1006e3c2-538e-4abb-b852-d4f3c4543979"  >
<rect style="stroke: none; stroke-width: 1; stroke-dasharray: none; stroke-linecap: butt; stroke-dashoffset: 0; stroke-linejoin: miter; stroke-miterlimit: 4; fill: rgb(255,255,255); fill-rule: nonzero; opacity: 1; visibility: hidden;" vector-effect="non-scaling-stroke"  x="-540" y="-540" rx="0" ry="0" width="1080" height="1080" />
</g>
<g transform="matrix(1 0 0 1 540 540)" id="c2a7378b-f3f8-4709-9ad2-8f21e1155cef"  >
</g>
<g transform="matrix(3.53 0 0 3.53 540 540)"  >
<g style="" vector-effect="non-scaling-stroke"   >
		<g transform="matrix(1 0 0 1 0 0)"  >
<path style="stroke: none; stroke-width: 1; stroke-dasharray: none; stroke-linecap: butt; stroke-dashoffset: 0; stroke-linejoin: miter; stroke-miterlimit: 4; fill: rgb(7,209,96); fill-rule: evenodd; opacity: 1;" vector-effect="non-scaling-stroke"  transform=" translate(-147, -55)" d="M -0.5 -0.5 C 97.8333 -0.5 196.167 -0.5 294.5 -0.5 C 294.5 36.5 294.5 73.5 294.5 110.5 C 196.167 110.5 97.8333 110.5 -0.5 110.5 C -0.5 73.5 -0.5 36.5 -0.5 -0.5 Z" stroke-linecap="round" />
</g>
		<g transform="matrix(1 0 0 1 9 -9)"  >
<path style="stroke: none; stroke-width: 1; stroke-dasharray: none; stroke-linecap: butt; stroke-dashoffset: 0; stroke-linejoin: miter; stroke-miterlimit: 4; fill: rgb(251,253,252); fill-rule: evenodd; opacity: 1;" vector-effect="non-scaling-stroke"  transform=" translate(-156, -46)" d="M 35.5 15.5 C 115.833 15.5 196.167 15.5 276.5 15.5 C 276.5 35.8333 276.5 56.1667 276.5 76.5 C 276.167 76.5 275.833 76.5 275.5 76.5 C 275.5 56.8333 275.5 37.1667 275.5 17.5 C 195.5 16.8333 115.5 16.1667 35.5 15.5 Z" stroke-linecap="round" />
</g>
		<g transform="matrix(1 0 0 1 -2.5 0)"  >
<path style="stroke: none; stroke-width: 1; stroke-dasharray: none; stroke-linecap: butt; stroke-dashoffset: 0; stroke-linejoin: miter; stroke-miterlimit: 4; fill: rgb(181,243,210); fill-rule: evenodd; opacity: 1;" vector-effect="non-scaling-stroke"  transform=" translate(-144.5, -55)" d="M 35.5 15.5 C 115.5 16.1667 195.5 16.8333 275.5 17.5 C 195.499 17.3333 115.499 17.5 35.5 18 C 33.563 18.1216 32.2297 18.955 31.5 20.5 C 26.5088 24.991 21.6755 29.6576 17 34.5 C 16.501 38.8206 16.3343 43.1539 16.5 47.5 C 16.5 63.1667 16.5 78.8333 16.5 94.5 C 16.1627 75.3114 15.1627 56.3114 13.5 37.5 C 13.9617 35.2433 14.9617 33.2433 16.5 31.5 C 20.8333 27.1667 25.1667 22.8333 29.5 18.5 C 31.5336 17.4412 33.5336 16.4412 35.5 15.5 Z" stroke-linecap="round" />
</g>
		<g transform="matrix(1 0 0 1 -77.53 -5.13)"  >
<path style="stroke: none; stroke-width: 1; stroke-dasharray: none; stroke-linecap: butt; stroke-dashoffset: 0; stroke-linejoin: miter; stroke-miterlimit: 4; fill: rgb(13,209,98); fill-rule: evenodd; opacity: 1;" vector-effect="non-scaling-stroke"  transform=" translate(-69.47, -49.87)" d="M 101.5 37.5 C 96.7863 37.1734 92.1196 37.5067 87.5 38.5 C 84.58 39.4498 82.2467 41.1165 80.5 43.5 C 79.5 43.5 78.5 43.5 77.5 43.5 C 77.5 42.5 77.5 41.5 77.5 40.5 C 77.5 39.5 77.5 38.5 77.5 37.5 C 75.1432 37.3367 72.8098 37.5034 70.5 38 C 69.944 38.3826 69.6107 38.8826 69.5 39.5 C 66.3383 46.6617 63.0049 53.8284 59.5 61 C 58.6815 62.3188 57.6815 63.4855 56.5 64.5 C 55.7025 64.0431 55.3691 63.3764 55.5 62.5 C 55.573 60.9731 54.9063 59.9731 53.5 59.5 C 51.8177 55.4734 50.151 51.4734 48.5 47.5 C 48.4077 45.1523 47.4077 43.4856 45.5 42.5 C 45.6716 41.5084 45.3382 40.8417 44.5 40.5 C 44.5858 39.5041 44.2524 38.6708 43.5 38 C 41.1902 37.5034 38.8568 37.3367 36.5 37.5 C 36.2627 38.791 36.596 39.791 37.5 40.5 C 42.7053 51.4678 47.7053 62.4678 52.5 73.5 C 55.1667 74.8333 57.8333 74.8333 60.5 73.5 C 62.5388 68.6464 64.8721 63.9797 67.5 59.5 C 70.8046 57.502 72.4712 54.502 72.5 50.5 C 72.5 50.1667 72.5 49.8333 72.5 49.5 C 73.7498 49.4226 74.5831 48.756 75 47.5 C 75.2873 53.024 75.7873 58.524 76.5 64 C 76.5066 65.8122 75.84 67.3122 74.5 68.5 C 70.2526 73.0023 65.5859 77.0023 60.5 80.5 C 56.0984 82.1498 52.4317 81.1498 49.5 77.5 C 48.2638 76.7542 46.9305 76.4208 45.5 76.5 C 45.6499 73.0573 43.9832 71.0573 40.5 70.5 C 39.273 69.4096 38.4396 68.0762 38 66.5 C 32.9494 63.6171 29.116 59.6171 26.5 54.5 C 23.5 54.1667 21.8333 52.5 21.5 49.5 C 19.6776 49.1692 18.0109 48.5025 16.5 47.5 C 16.3343 43.1539 16.501 38.8206 17 34.5 C 21.6755 29.6576 26.5088 24.991 31.5 20.5 C 33.7463 19.7904 36.0796 19.2904 38.5 19 C 66.506 18.1668 94.506 18.3335 122.5 19.5 C 117.167 25.1667 111.833 30.8333 106.5 36.5 C 104.955 37.4519 103.288 37.7852 101.5 37.5 Z" stroke-linecap="round" />
</g>
		<g transform="matrix(1 0 0 1 51 1.5)"  >
<path style="stroke: none; stroke-width: 1; stroke-dasharray: none; stroke-linecap: butt; stroke-dashoffset: 0; stroke-linejoin: miter; stroke-miterlimit: 4; fill: rgb(5,208,96); fill-rule: evenodd; opacity: 1;" vector-effect="non-scaling-stroke"  transform=" translate(-198, -56.5)" d="M 274.5 76.5 C 270.257 81.7479 265.591 86.7479 260.5 91.5 C 258.929 93.415 256.929 94.415 254.5 94.5 C 210.165 94.6667 165.832 94.5 121.5 94 C 127.627 92.4213 133.627 90.4213 139.5 88 C 145.797 83.3711 151.463 78.0377 156.5 72 C 157.793 71.51 159.127 71.3433 160.5 71.5 C 161.609 71.5569 162.609 71.8902 163.5 72.5 C 163.5 73.8333 164.167 74.5 165.5 74.5 C 170.435 77.0988 175.435 77.0988 180.5 74.5 C 182.027 74.573 183.027 73.9063 183.5 72.5 C 184.172 71.7326 185.005 71.0659 186 70.5 C 186.21 72.0581 186.71 73.3915 187.5 74.5 C 188.952 76.8519 190.952 77.1852 193.5 75.5 C 193.833 71.1667 194.167 66.8333 194.5 62.5 C 194.492 57.7784 193.825 53.4451 192.5 49.5 C 191.64 47.7121 190.64 46.0455 189.5 44.5 C 189.39 41.9412 190.056 39.6079 191.5 37.5 C 197.566 30.6425 204.232 24.4758 211.5 19 C 232.497 18.5 253.497 18.3334 274.5 18.5 C 274.5 37.8333 274.5 57.1667 274.5 76.5 Z" stroke-linecap="round" />
</g>
		<g transform="matrix(1 0 0 1 -106.53 -16.03)"  >
<path style="stroke: none; stroke-width: 1; stroke-dasharray: none; stroke-linecap: butt; stroke-dashoffset: 0; stroke-linejoin: miter; stroke-miterlimit: 4; fill: rgb(185,244,214); fill-rule: evenodd; opacity: 1;" vector-effect="non-scaling-stroke"  transform=" translate(-40.47, -38.97)" d="M 44.5 40.5 C 42.059 39.2437 39.7257 39.2437 37.5 40.5 C 36.596 39.791 36.2627 38.791 36.5 37.5 C 38.8568 37.3367 41.1902 37.5034 43.5 38 C 44.2524 38.6708 44.5858 39.5041 44.5 40.5 Z" stroke-linecap="round" />
</g>
		<g transform="matrix(1 0 0 1 -73.5 -16.03)"  >
<path style="stroke: none; stroke-width: 1; stroke-dasharray: none; stroke-linecap: butt; stroke-dashoffset: 0; stroke-linejoin: miter; stroke-miterlimit: 4; fill: rgb(191,243,218); fill-rule: evenodd; opacity: 1;" vector-effect="non-scaling-stroke"  transform=" translate(-73.5, -38.97)" d="M 77.5 40.5 C 76.8333 40.5 76.1667 40.5 75.5 40.5 C 73.7354 39.5386 71.7354 39.2053 69.5 39.5 C 69.6107 38.8826 69.944 38.3826 70.5 38 C 72.8098 37.5034 75.1432 37.3367 77.5 37.5 C 77.5 38.5 77.5 39.5 77.5 40.5 Z" stroke-linecap="round" />
</g>
		<g transform="matrix(1 0 0 1 -52.37 1.44)"  >
<path style="stroke: none; stroke-width: 1; stroke-dasharray: none; stroke-linecap: butt; stroke-dashoffset: 0; stroke-linejoin: miter; stroke-miterlimit: 4; fill: rgb(242,252,248); fill-rule: evenodd; opacity: 1;" vector-effect="non-scaling-stroke"  transform=" translate(-94.63, -56.44)" d="M 101.5 37.5 C 105.325 40.1003 108.492 43.4337 111 47.5 C 112.354 51.3628 112.854 55.3628 112.5 59.5 C 103.167 59.5 93.8333 59.5 84.5 59.5 C 86.2597 67.9297 91.2597 70.9297 99.5 68.5 C 101.482 67.7838 103.149 66.6171 104.5 65 C 106.81 64.5034 109.143 64.3367 111.5 64.5 C 110.664 67.187 109.164 69.5203 107 71.5 C 105.6 72.748 104.1 73.748 102.5 74.5 C 97.5 75.8333 92.5 75.8333 87.5 74.5 C 84.6596 73.5766 82.3263 71.9099 80.5 69.5 C 75.3721 60.752 75.3721 52.0853 80.5 43.5 C 82.2467 41.1165 84.58 39.4498 87.5 38.5 C 92.1196 37.5067 96.7863 37.1734 101.5 37.5 Z" stroke-linecap="round" />
</g>
		<g transform="matrix(1 0 0 1 -90.5 1.95)"  >
<path style="stroke: none; stroke-width: 1; stroke-dasharray: none; stroke-linecap: butt; stroke-dashoffset: 0; stroke-linejoin: miter; stroke-miterlimit: 4; fill: rgb(240,252,246); fill-rule: evenodd; opacity: 1;" vector-effect="non-scaling-stroke"  transform=" translate(-56.5, -56.95)" d="M 44.5 40.5 C 45.3382 40.8417 45.6716 41.5084 45.5 42.5 C 45.7497 44.674 46.7497 46.3406 48.5 47.5 C 50.151 51.4734 51.8177 55.4734 53.5 59.5 C 53.427 61.0269 54.0937 62.0269 55.5 62.5 C 55.3691 63.3764 55.7025 64.0431 56.5 64.5 C 57.6815 63.4855 58.6815 62.3188 59.5 61 C 63.0049 53.8284 66.3383 46.6617 69.5 39.5 C 71.7354 39.2053 73.7354 39.5386 75.5 40.5 C 74.7866 43.5939 73.7866 46.5939 72.5 49.5 C 72.5 49.8333 72.5 50.1667 72.5 50.5 C 70.0983 52.9525 68.4317 55.9525 67.5 59.5 C 64.8721 63.9797 62.5388 68.6464 60.5 73.5 C 57.8333 74.8333 55.1667 74.8333 52.5 73.5 C 47.7053 62.4678 42.7053 51.4678 37.5 40.5 C 39.7257 39.2437 42.059 39.2437 44.5 40.5 Z" stroke-linecap="round" />
</g>
		<g transform="matrix(1 0 0 1 -100 -10)"  >
<path style="stroke: none; stroke-width: 1; stroke-dasharray: none; stroke-linecap: butt; stroke-dashoffset: 0; stroke-linejoin: miter; stroke-miterlimit: 4; fill: rgb(120,223,166); fill-rule: evenodd; opacity: 1;" vector-effect="non-scaling-stroke"  transform=" translate(-47, -45)" d="M 45.5 42.5 C 47.4077 43.4856 48.4077 45.1523 48.5 47.5 C 46.7497 46.3406 45.7497 44.674 45.5 42.5 Z" stroke-linecap="round" />
</g>
		<g transform="matrix(1 0 0 1 -1 1.53)"  >
<path style="stroke: none; stroke-width: 1; stroke-dasharray: none; stroke-linecap: butt; stroke-dashoffset: 0; stroke-linejoin: miter; stroke-miterlimit: 4; fill: rgb(69,220,137); fill-rule: evenodd; opacity: 1;" vector-effect="non-scaling-stroke"  transform=" translate(-146, -56.53)" d="M 275.5 17.5 C 275.5 37.1667 275.5 56.8333 275.5 76.5 C 275.167 76.5 274.833 76.5 274.5 76.5 C 274.5 57.1667 274.5 37.8333 274.5 18.5 C 253.497 18.3334 232.497 18.5 211.5 19 C 204.232 24.4758 197.566 30.6425 191.5 37.5 C 190.056 39.6079 189.39 41.9412 189.5 44.5 C 187.674 40.9018 184.674 38.7351 180.5 38 C 174.134 36.8149 168.134 37.6482 162.5 40.5 C 158.784 44.9282 156.451 49.9282 155.5 55.5 C 155.636 57.8645 155.97 60.1979 156.5 62.5 C 158.236 65.3945 159.569 68.3945 160.5 71.5 C 159.127 71.3433 157.793 71.51 156.5 72 C 151.463 78.0377 145.797 83.3711 139.5 88 C 133.627 90.4213 127.627 92.4213 121.5 94 C 165.832 94.5 210.165 94.6667 254.5 94.5 C 254.5 94.8333 254.5 95.1667 254.5 95.5 C 174.998 95.8326 95.6649 95.4993 16.5 94.5 C 16.5 78.8333 16.5 63.1667 16.5 47.5 C 18.0109 48.5025 19.6776 49.1692 21.5 49.5 C 21.8333 52.5 23.5 54.1667 26.5 54.5 C 29.116 59.6171 32.9494 63.6171 38 66.5 C 38.4396 68.0762 39.273 69.4096 40.5 70.5 C 43.9832 71.0573 45.6499 73.0573 45.5 76.5 C 46.9305 76.4208 48.2638 76.7542 49.5 77.5 C 52.4317 81.1498 56.0984 82.1498 60.5 80.5 C 65.5859 77.0023 70.2526 73.0023 74.5 68.5 C 75.84 67.3122 76.5066 65.8122 76.5 64 C 75.7873 58.524 75.2873 53.024 75 47.5 C 74.5831 48.756 73.7498 49.4226 72.5 49.5 C 73.7866 46.5939 74.7866 43.5939 75.5 40.5 C 76.1667 40.5 76.8333 40.5 77.5 40.5 C 77.5 41.5 77.5 42.5 77.5 43.5 C 78.5 43.5 79.5 43.5 80.5 43.5 C 75.3721 52.0853 75.3721 60.752 80.5 69.5 C 82.3263 71.9099 84.6596 73.5766 87.5 74.5 C 89.3972 75.8048 91.7305 76.4714 94.5 76.5 C 96.8333 76.3333 99.1667 76.1667 101.5 76 C 102.056 75.6174 102.389 75.1174 102.5 74.5 C 104.1 73.748 105.6 72.748 107 71.5 C 109.164 69.5203 110.664 67.187 111.5 64.5 C 109.143 64.3367 106.81 64.5034 104.5 65 C 103.149 66.6171 101.482 67.7838 99.5 68.5 C 91.2597 70.9297 86.2597 67.9297 84.5 59.5 C 93.8333 59.5 103.167 59.5 112.5 59.5 C 112.854 55.3628 112.354 51.3628 111 47.5 C 108.492 43.4337 105.325 40.1003 101.5 37.5 C 103.288 37.7852 104.955 37.4519 106.5 36.5 C 111.833 30.8333 117.167 25.1667 122.5 19.5 C 94.506 18.3335 66.506 18.1668 38.5 19 C 36.0796 19.2904 33.7463 19.7904 31.5 20.5 C 32.2297 18.955 33.563 18.1216 35.5 18 C 115.499 17.5 195.499 17.3333 275.5 17.5 Z" stroke-linecap="round" />
</g>
		<g transform="matrix(1 0 0 1 -50 -6.8)"  >
<path style="stroke: none; stroke-width: 1; stroke-dasharray: none; stroke-linecap: butt; stroke-dashoffset: 0; stroke-linejoin: miter; stroke-miterlimit: 4; fill: rgb(80,221,142); fill-rule: evenodd; opacity: 1;" vector-effect="non-scaling-stroke"  transform=" translate(-97, -48.2)" d="M 89.5 44.5 C 94.0208 42.9434 98.3541 43.6101 102.5 46.5 C 103.853 47.5237 104.52 48.857 104.5 50.5 C 100.285 52.4364 95.6186 53.1031 90.5 52.5 C 91.8968 50.6207 93.5635 48.9541 95.5 47.5 C 96.3857 46.675 96.719 45.675 96.5 44.5 C 94.1667 44.5 91.8333 44.5 89.5 44.5 Z" stroke-linecap="round" />
</g>
		<g transform="matrix(1 0 0 1 -56.47 -6.5)"  >
<path style="stroke: none; stroke-width: 1; stroke-dasharray: none; stroke-linecap: butt; stroke-dashoffset: 0; stroke-linejoin: miter; stroke-miterlimit: 4; fill: rgb(25,209,103); fill-rule: evenodd; opacity: 1;" vector-effect="non-scaling-stroke"  transform=" translate(-90.53, -48.5)" d="M 89.5 44.5 C 91.8333 44.5 94.1667 44.5 96.5 44.5 C 96.719 45.675 96.3857 46.675 95.5 47.5 C 93.5635 48.9541 91.8968 50.6207 90.5 52.5 C 88.5 52.5 86.5 52.5 84.5 52.5 C 84.945 49.0579 86.6117 46.3912 89.5 44.5 Z" stroke-linecap="round" />
</g>
		<g transform="matrix(1 0 0 1 79.51 0.9)"  >
<path style="stroke: none; stroke-width: 1; stroke-dasharray: none; stroke-linecap: butt; stroke-dashoffset: 0; stroke-linejoin: miter; stroke-miterlimit: 4; fill: rgb(242,252,247); fill-rule: evenodd; opacity: 1;" vector-effect="non-scaling-stroke"  transform=" translate(-226.51, -55.9)" d="M 252.5 74.5 C 250.5 74.5 248.5 74.5 246.5 74.5 C 246.825 66.6484 246.492 58.9818 245.5 51.5 C 245.167 50.1667 244.833 48.8333 244.5 47.5 C 241.317 43.4312 237.317 42.5979 232.5 45 C 231.748 45.6708 231.414 46.5041 231.5 47.5 C 229.824 48.1834 229.157 49.5168 229.5 51.5 C 228.508 58.9818 228.175 66.6484 228.5 74.5 C 226.5 74.5 224.5 74.5 222.5 74.5 C 222.666 66.16 222.5 57.8267 222 49.5 C 221.722 48.5842 221.222 47.9175 220.5 47.5 C 217.45 44.6465 213.783 43.8132 209.5 45 C 208.244 45.4169 207.577 46.2502 207.5 47.5 C 206.167 47.5 205.5 48.1667 205.5 49.5 C 204.507 57.6499 204.174 65.9832 204.5 74.5 C 202.833 74.5 201.167 74.5 199.5 74.5 C 199.5 65.5 199.5 56.5 199.5 47.5 C 200.509 42.9869 203.176 39.8202 207.5 38 C 214.556 36.2552 220.722 37.7552 226 42.5 C 231.731 37.7436 238.231 36.4103 245.5 38.5 C 249.007 41.5027 251.507 45.1693 253 49.5 C 253.823 58.0104 253.657 66.3437 252.5 74.5 Z" stroke-linecap="round" />
</g>
		<g transform="matrix(1 0 0 1 90.99 -9.42)"  >
<path style="stroke: none; stroke-width: 1; stroke-dasharray: none; stroke-linecap: butt; stroke-dashoffset: 0; stroke-linejoin: miter; stroke-miterlimit: 4; fill: rgb(87,217,139); fill-rule: evenodd; opacity: 1;" vector-effect="non-scaling-stroke"  transform=" translate(-237.99, -45.58)" d="M 244.5 47.5 C 240.032 45.1243 235.699 45.1243 231.5 47.5 C 231.414 46.5041 231.748 45.6708 232.5 45 C 237.317 42.5979 241.317 43.4312 244.5 47.5 Z" stroke-linecap="round" />
</g>
		<g transform="matrix(1 0 0 1 27 1.96)"  >
<path style="stroke: none; stroke-width: 1; stroke-dasharray: none; stroke-linecap: butt; stroke-dashoffset: 0; stroke-linejoin: miter; stroke-miterlimit: 4; fill: rgb(240,252,246); fill-rule: evenodd; opacity: 1;" vector-effect="non-scaling-stroke"  transform=" translate(-174, -56.96)" d="M 189.5 44.5 C 190.64 46.0455 191.64 47.7121 192.5 49.5 C 192.5 57.8333 192.5 66.1667 192.5 74.5 C 190.833 74.5 189.167 74.5 187.5 74.5 C 186.71 73.3915 186.21 72.0581 186 70.5 C 185.005 71.0659 184.172 71.7326 183.5 72.5 C 181.973 72.427 180.973 73.0937 180.5 74.5 C 175.435 77.0988 170.435 77.0988 165.5 74.5 C 164.167 74.5 163.5 73.8333 163.5 72.5 C 162.609 71.8902 161.609 71.5569 160.5 71.5 C 159.569 68.3945 158.236 65.3945 156.5 62.5 C 155.97 60.1979 155.636 57.8645 155.5 55.5 C 156.451 49.9282 158.784 44.9282 162.5 40.5 C 168.134 37.6482 174.134 36.8149 180.5 38 C 184.674 38.7351 187.674 40.9018 189.5 44.5 Z" stroke-linecap="round" />
</g>
		<g transform="matrix(1 0 0 1 25 -8.5)"  >
<path style="stroke: none; stroke-width: 1; stroke-dasharray: none; stroke-linecap: butt; stroke-dashoffset: 0; stroke-linejoin: miter; stroke-miterlimit: 4; fill: rgb(126,225,169); fill-rule: evenodd; opacity: 1;" vector-effect="non-scaling-stroke"  transform=" translate(-172, -46.5)" d="M 178.5 44.5 C 176.473 44.3379 174.473 44.5045 172.5 45 C 170.11 46.5212 167.777 48.0212 165.5 49.5 C 165.913 46.5849 167.579 44.7516 170.5 44 C 173.367 43.1993 176.034 43.3659 178.5 44.5 Z" stroke-linecap="round" />
</g>
		<g transform="matrix(1 0 0 1 26 0.47)"  >
<path style="stroke: none; stroke-width: 1; stroke-dasharray: none; stroke-linecap: butt; stroke-dashoffset: 0; stroke-linejoin: miter; stroke-miterlimit: 4; fill: rgb(70,220,137); fill-rule: evenodd; opacity: 1;" vector-effect="non-scaling-stroke"  transform=" translate(-173, -55.47)" d="M 178.5 44.5 C 180.632 44.5544 181.965 45.5544 182.5 47.5 C 177.573 51.4223 172.906 55.7556 168.5 60.5 C 167.652 62.4086 167.318 64.4086 167.5 66.5 C 165.665 65.8777 164.498 64.5444 164 62.5 C 163.833 60.3333 163.667 58.1667 163.5 56 C 163.533 53.3897 164.2 51.223 165.5 49.5 C 167.777 48.0212 170.11 46.5212 172.5 45 C 174.473 44.5045 176.473 44.3379 178.5 44.5 Z" stroke-linecap="round" />
</g>
		<g transform="matrix(1 0 0 1 -12.63 1.68)"  >
<path style="stroke: none; stroke-width: 1; stroke-dasharray: none; stroke-linecap: butt; stroke-dashoffset: 0; stroke-linejoin: miter; stroke-miterlimit: 4; fill: rgb(241,252,247); fill-rule: evenodd; opacity: 1;" vector-effect="non-scaling-stroke"  transform=" translate(-134.37, -56.68)" d="M 126.5 37.5 C 133.697 36.6757 140.363 38.009 146.5 41.5 C 151.483 46.4497 153.483 52.4497 152.5 59.5 C 143.167 59.5 133.833 59.5 124.5 59.5 C 125.891 68.1907 130.891 71.1907 139.5 68.5 C 142.517 65.4461 146.183 64.1128 150.5 64.5 C 149.009 70.8221 145.009 74.6554 138.5 76 C 128.903 76.784 121.736 72.9507 117 64.5 C 114.183 53.1014 117.349 44.1014 126.5 37.5 Z" stroke-linecap="round" />
</g>
		<g transform="matrix(1 0 0 1 -13 -6.41)"  >
<path style="stroke: none; stroke-width: 1; stroke-dasharray: none; stroke-linecap: butt; stroke-dashoffset: 0; stroke-linejoin: miter; stroke-miterlimit: 4; fill: rgb(70,220,138); fill-rule: evenodd; opacity: 1;" vector-effect="non-scaling-stroke"  transform=" translate(-134, -48.59)" d="M 138.5 44.5 C 140.855 45.5218 142.522 47.1884 143.5 49.5 C 143.5 50.5 143.5 51.5 143.5 52.5 C 136.745 53.1229 130.412 52.4563 124.5 50.5 C 125.604 48.6115 126.937 46.9448 128.5 45.5 C 131.764 44.6758 135.098 44.3424 138.5 44.5 Z" stroke-linecap="round" />
</g>
		<g transform="matrix(1 0 0 1 -13.5 -10.5)"  >
<path style="stroke: none; stroke-width: 1; stroke-dasharray: none; stroke-linecap: butt; stroke-dashoffset: 0; stroke-linejoin: miter; stroke-miterlimit: 4; fill: rgb(171,233,200); fill-rule: evenodd; opacity: 1;" vector-effect="non-scaling-stroke"  transform=" translate(-133.5, -44.5)" d="M 138.5 44.5 C 135.098 44.3424 131.764 44.6758 128.5 45.5 C 128.611 44.8826 128.944 44.3826 129.5 44 C 132.696 43.1955 135.696 43.3622 138.5 44.5 Z" stroke-linecap="round" />
</g>
		<g transform="matrix(1 0 0 1 29.63 3.25)"  >
<path style="stroke: none; stroke-width: 1; stroke-dasharray: none; stroke-linecap: butt; stroke-dashoffset: 0; stroke-linejoin: miter; stroke-miterlimit: 4; fill: rgb(24,210,102); fill-rule: evenodd; opacity: 1;" vector-effect="non-scaling-stroke"  transform=" translate(-176.63, -58.25)" d="M 182.5 47.5 C 183.931 47.8807 184.764 48.8807 185 50.5 C 187.871 62.9455 183.037 69.1122 170.5 69 C 169.058 68.6232 168.058 67.7899 167.5 66.5 C 167.318 64.4086 167.652 62.4086 168.5 60.5 C 172.906 55.7556 177.573 51.4223 182.5 47.5 Z" stroke-linecap="round" />
</g>
		<g transform="matrix(1 0 0 1 -51.96 -2.94)"  >
<path style="stroke: none; stroke-width: 1; stroke-dasharray: none; stroke-linecap: butt; stroke-dashoffset: 0; stroke-linejoin: miter; stroke-miterlimit: 4; fill: rgb(137,208,170); fill-rule: evenodd; opacity: 1;" vector-effect="non-scaling-stroke"  transform=" translate(-95.04, -52.06)" d="M 104.5 50.5 C 105.404 51.209 105.737 52.209 105.5 53.5 C 98.3134 53.8245 91.3134 53.4912 84.5 52.5 C 86.5 52.5 88.5 52.5 90.5 52.5 C 95.6186 53.1031 100.285 52.4364 104.5 50.5 Z" stroke-linecap="round" />
</g>
		<g transform="matrix(1 0 0 1 -12.65 -3.47)"  >
<path style="stroke: none; stroke-width: 1; stroke-dasharray: none; stroke-linecap: butt; stroke-dashoffset: 0; stroke-linejoin: miter; stroke-miterlimit: 4; fill: rgb(145,215,177); fill-rule: evenodd; opacity: 1;" vector-effect="non-scaling-stroke"  transform=" translate(-134.35, -51.53)" d="M 143.5 49.5 C 145.466 50.2545 145.8 51.4212 144.5 53 C 137.508 53.4996 130.508 53.6663 123.5 53.5 C 123.263 52.209 123.596 51.209 124.5 50.5 C 130.412 52.4563 136.745 53.1229 143.5 52.5 C 143.5 51.5 143.5 50.5 143.5 49.5 Z" stroke-linecap="round" />
</g>
		<g transform="matrix(1 0 0 1 78 7.06)"  >
<path style="stroke: none; stroke-width: 1; stroke-dasharray: none; stroke-linecap: butt; stroke-dashoffset: 0; stroke-linejoin: miter; stroke-miterlimit: 4; fill: rgb(70,212,131); fill-rule: evenodd; opacity: 1;" vector-effect="non-scaling-stroke"  transform=" translate(-225, -62.06)" d="M 220.5 47.5 C 221.222 47.9175 221.722 48.5842 222 49.5 C 222.5 57.8267 222.666 66.16 222.5 74.5 C 224.607 75.4682 226.941 75.8016 229.5 75.5 C 226.713 76.4767 223.713 76.81 220.5 76.5 C 220.5 66.8333 220.5 57.1667 220.5 47.5 Z" stroke-linecap="round" />
</g>
		<g transform="matrix(1 0 0 1 83.46 6.5)"  >
<path style="stroke: none; stroke-width: 1; stroke-dasharray: none; stroke-linecap: butt; stroke-dashoffset: 0; stroke-linejoin: miter; stroke-miterlimit: 4; fill: rgb(57,227,133); fill-rule: evenodd; opacity: 1;" vector-effect="non-scaling-stroke"  transform=" translate(-230.46, -61.5)" d="M 231.5 47.5 C 230.884 56.9632 230.217 66.2965 229.5 75.5 C 229.5 67.5 229.5 59.5 229.5 51.5 C 229.157 49.5168 229.824 48.1834 231.5 47.5 Z" stroke-linecap="round" />
</g>
		<g transform="matrix(1 0 0 1 102 8.55)"  >
<path style="stroke: none; stroke-width: 1; stroke-dasharray: none; stroke-linecap: butt; stroke-dashoffset: 0; stroke-linejoin: miter; stroke-miterlimit: 4; fill: rgb(126,253,187); fill-rule: evenodd; opacity: 1;" vector-effect="non-scaling-stroke"  transform=" translate(-249, -63.55)" d="M 245.5 51.5 C 246.492 58.9818 246.825 66.6484 246.5 74.5 C 248.5 74.5 250.5 74.5 252.5 74.5 C 250.393 75.4682 248.059 75.8016 245.5 75.5 C 245.5 67.5 245.5 59.5 245.5 51.5 Z" stroke-linecap="round" />
</g>
		<g transform="matrix(1 0 0 1 54.5 6.49)"  >
<path style="stroke: none; stroke-width: 1; stroke-dasharray: none; stroke-linecap: butt; stroke-dashoffset: 0; stroke-linejoin: miter; stroke-miterlimit: 4; fill: rgb(182,237,212); fill-rule: evenodd; opacity: 1;" vector-effect="non-scaling-stroke"  transform=" translate(-201.5, -61.49)" d="M 199.5 47.5 C 199.5 56.5 199.5 65.5 199.5 74.5 C 201.167 74.5 202.833 74.5 204.5 74.5 C 204.174 65.9832 204.507 57.6499 205.5 49.5 C 205.5 57.8333 205.5 66.1667 205.5 74.5 C 203.105 75.8143 200.605 75.8143 198 74.5 C 197.333 66.1667 197.333 57.8333 198 49.5 C 198.278 48.5842 198.778 47.9175 199.5 47.5 Z" stroke-linecap="round" />
</g>
		<g transform="matrix(1 0 0 1 59.5 6)"  >
<path style="stroke: none; stroke-width: 1; stroke-dasharray: none; stroke-linecap: butt; stroke-dashoffset: 0; stroke-linejoin: miter; stroke-miterlimit: 4; fill: rgb(70,216,135); fill-rule: evenodd; opacity: 1;" vector-effect="non-scaling-stroke"  transform=" translate(-206.5, -61)" d="M 207.5 47.5 C 206.886 56.63 206.219 65.63 205.5 74.5 C 205.5 66.1667 205.5 57.8333 205.5 49.5 C 205.5 48.1667 206.167 47.5 207.5 47.5 Z" stroke-linecap="round" />
</g>
		<g transform="matrix(1 0 0 1 79 8.55)"  >
<path style="stroke: none; stroke-width: 1; stroke-dasharray: none; stroke-linecap: butt; stroke-dashoffset: 0; stroke-linejoin: miter; stroke-miterlimit: 4; fill: rgb(195,236,215); fill-rule: evenodd; opacity: 1;" vector-effect="non-scaling-stroke"  transform=" translate(-226, -63.55)" d="M 229.5 51.5 C 229.5 59.5 229.5 67.5 229.5 75.5 C 226.941 75.8016 224.607 75.4682 222.5 74.5 C 224.5 74.5 226.5 74.5 228.5 74.5 C 228.175 66.6484 228.508 58.9818 229.5 51.5 Z" stroke-linecap="round" />
</g>
		<g transform="matrix(1 0 0 1 44 8.03)"  >
<path style="stroke: none; stroke-width: 1; stroke-dasharray: none; stroke-linecap: butt; stroke-dashoffset: 0; stroke-linejoin: miter; stroke-miterlimit: 4; fill: rgb(90,216,144); fill-rule: evenodd; opacity: 1;" vector-effect="non-scaling-stroke"  transform=" translate(-191, -63.03)" d="M 192.5 49.5 C 193.825 53.4451 194.492 57.7784 194.5 62.5 C 194.167 66.8333 193.833 71.1667 193.5 75.5 C 190.952 77.1852 188.952 76.8519 187.5 74.5 C 189.167 74.5 190.833 74.5 192.5 74.5 C 192.5 66.1667 192.5 57.8333 192.5 49.5 Z" stroke-linecap="round" />
</g>
		<g transform="matrix(1 0 0 1 -77 0)"  >
<path style="stroke: none; stroke-width: 1; stroke-dasharray: none; stroke-linecap: butt; stroke-dashoffset: 0; stroke-linejoin: miter; stroke-miterlimit: 4; fill: rgb(91,215,142); fill-rule: evenodd; opacity: 1;" vector-effect="non-scaling-stroke"  transform=" translate(-70, -55)" d="M 72.5 50.5 C 72.4712 54.502 70.8046 57.502 67.5 59.5 C 68.4317 55.9525 70.0983 52.9525 72.5 50.5 Z" stroke-linecap="round" />
</g>
		<g transform="matrix(1 0 0 1 -92.5 6)"  >
<path style="stroke: none; stroke-width: 1; stroke-dasharray: none; stroke-linecap: butt; stroke-dashoffset: 0; stroke-linejoin: miter; stroke-miterlimit: 4; fill: rgb(133,230,178); fill-rule: evenodd; opacity: 1;" vector-effect="non-scaling-stroke"  transform=" translate(-54.5, -61)" d="M 53.5 59.5 C 54.9063 59.9731 55.573 60.9731 55.5 62.5 C 54.0937 62.0269 53.427 61.0269 53.5 59.5 Z" stroke-linecap="round" />
</g>
		<g transform="matrix(1 0 0 1 17.5 18.5)"  >
<path style="stroke: none; stroke-width: 1; stroke-dasharray: none; stroke-linecap: butt; stroke-dashoffset: 0; stroke-linejoin: miter; stroke-miterlimit: 4; fill: rgb(129,226,174); fill-rule: evenodd; opacity: 1;" vector-effect="non-scaling-stroke"  transform=" translate(-164.5, -73.5)" d="M 163.5 72.5 C 164.833 72.5 165.5 73.1667 165.5 74.5 C 165.5 73.1667 164.833 72.5 163.5 72.5 Z" stroke-linecap="round" />
</g>
		<g transform="matrix(1 0 0 1 35 18.5)"  >
<path style="stroke: none; stroke-width: 1; stroke-dasharray: none; stroke-linecap: butt; stroke-dashoffset: 0; stroke-linejoin: miter; stroke-miterlimit: 4; fill: rgb(135,225,177); fill-rule: evenodd; opacity: 1;" vector-effect="non-scaling-stroke"  transform=" translate(-182, -73.5)" d="M 183.5 72.5 C 183.027 73.9063 182.027 74.573 180.5 74.5 C 180.973 73.0937 181.973 72.427 183.5 72.5 Z" stroke-linecap="round" />
</g>
		<g transform="matrix(1 0 0 1 -52 20.5)"  >
<path style="stroke: none; stroke-width: 1; stroke-dasharray: none; stroke-linecap: butt; stroke-dashoffset: 0; stroke-linejoin: miter; stroke-miterlimit: 4; fill: rgb(149,226,184); fill-rule: evenodd; opacity: 1;" vector-effect="non-scaling-stroke"  transform=" translate(-95, -75.5)" d="M 87.5 74.5 C 92.5 75.8333 97.5 75.8333 102.5 74.5 C 102.389 75.1174 102.056 75.6174 101.5 76 C 99.1667 76.1667 96.8333 76.3333 94.5 76.5 C 91.7305 76.4714 89.3972 75.8048 87.5 74.5 Z" stroke-linecap="round" />
</g>
		<g transform="matrix(1 0 0 1 118.5 31.5)"  >
<path style="stroke: none; stroke-width: 1; stroke-dasharray: none; stroke-linecap: butt; stroke-dashoffset: 0; stroke-linejoin: miter; stroke-miterlimit: 4; fill: rgb(186,243,214); fill-rule: evenodd; opacity: 1;" vector-effect="non-scaling-stroke"  transform=" translate(-265.5, -86.5)" d="M 274.5 76.5 C 274.833 76.5 275.167 76.5 275.5 76.5 C 275.833 76.5 276.167 76.5 276.5 76.5 C 276.271 78.433 275.438 80.0997 274 81.5 C 268.634 86.3671 263.467 91.3671 258.5 96.5 C 257.432 95.5655 256.099 95.2322 254.5 95.5 C 254.5 95.1667 254.5 94.8333 254.5 94.5 C 256.929 94.415 258.929 93.415 260.5 91.5 C 265.591 86.7479 270.257 81.7479 274.5 76.5 Z" stroke-linecap="round" />
</g>
		<g transform="matrix(1 0 0 1 -11 12.56)"  >
<path style="stroke: none; stroke-width: 1; stroke-dasharray: none; stroke-linecap: butt; stroke-dashoffset: 0; stroke-linejoin: miter; stroke-miterlimit: 4; fill: rgb(198,247,230); fill-rule: evenodd; opacity: 1;" vector-effect="non-scaling-stroke"  transform=" translate(-136, -67.56)" d="M 13.5 37.5 C 15.1627 56.3114 16.1627 75.3114 16.5 94.5 C 95.6649 95.4993 174.998 95.8326 254.5 95.5 C 256.099 95.2322 257.432 95.5655 258.5 96.5 C 257.833 96.5 257.167 96.5 256.5 96.5 C 175.541 97.4943 94.541 97.8276 13.5 97.5 C 13.5 77.5 13.5 57.5 13.5 37.5 Z" stroke-linecap="round" />
</g>
		<g transform="matrix(1 0 0 1 -12 42.5)"  >
<path style="stroke: none; stroke-width: 1; stroke-dasharray: none; stroke-linecap: butt; stroke-dashoffset: 0; stroke-linejoin: miter; stroke-miterlimit: 4; fill: rgb(81,199,134); fill-rule: evenodd; opacity: 1;" vector-effect="non-scaling-stroke"  transform=" translate(-135, -97.5)" d="M 256.5 96.5 C 216.339 97.8333 175.839 98.4999 135 98.5 C 94.332 98.5 53.832 98.1667 13.5 97.5 C 94.541 97.8276 175.541 97.4943 256.5 96.5 Z" stroke-linecap="round" />
</g>
</g>
</g>
</svg>